<?xml version="1.0" encoding="UTF-8" standalone="no"?>
<!-- Created with Inkscape (http://www.inkscape.org/) -->

<svg
   xmlns:dc="http://purl.org/dc/elements/1.1/"
   xmlns:cc="http://creativecommons.org/ns#"
   xmlns:rdf="http://www.w3.org/1999/02/22-rdf-syntax-ns#"
   xmlns:svg="http://www.w3.org/2000/svg"
   xmlns="http://www.w3.org/2000/svg"
   xmlns:xlink="http://www.w3.org/1999/xlink"
   xmlns:sodipodi="http://sodipodi.sourceforge.net/DTD/sodipodi-0.dtd"
   xmlns:inkscape="http://www.inkscape.org/namespaces/inkscape"
   width="207.35777mm"
   height="44.143501mm"
   viewBox="0 0 207.35777 44.143501"
   version="1.1"
   id="svg8"
   inkscape:version="0.92.5 (2060ec1f9f, 2020-04-08)"
   sodipodi:docname="logo.svg">
  <defs
     id="defs2">
    <linearGradient
       inkscape:collect="always"
       id="linearGradient970">
      <stop
         style="stop-color:#d40000;stop-opacity:1;"
         offset="0"
         id="stop966" />
      <stop
         style="stop-color:#d35400;stop-opacity:1"
         offset="1"
         id="stop968" />
    </linearGradient>
    <linearGradient
       inkscape:collect="always"
       xlink:href="#linearGradient970"
       id="linearGradient972"
       x1="2.7324636"
       y1="21.523401"
       x2="38.278221"
       y2="21.090162"
       gradientUnits="userSpaceOnUse" />
  </defs>
  <sodipodi:namedview
     id="base"
     pagecolor="#ffffff"
     bordercolor="#666666"
     borderopacity="1.0"
     inkscape:pageopacity="0.0"
     inkscape:pageshadow="2"
     inkscape:zoom="1.4"
     inkscape:cx="356.85412"
     inkscape:cy="-110.53871"
     inkscape:document-units="mm"
     inkscape:current-layer="layer1"
     showgrid="false"
     inkscape:window-width="1904"
     inkscape:window-height="1010"
     inkscape:window-x="8"
     inkscape:window-y="36"
     inkscape:window-maximized="0" />
  <metadata
     id="metadata5">
    <rdf:RDF>
      <cc:Work
         rdf:about="">
        <dc:format>image/svg+xml</dc:format>
        <dc:type
           rdf:resource="http://purl.org/dc/dcmitype/StillImage" />
        <dc:title></dc:title>
      </cc:Work>
    </rdf:RDF>
  </metadata>
  <g
     inkscape:label="Layer 1"
     inkscape:groupmode="layer"
     id="layer1"
     transform="translate(-2.4680315,-2.5012767)">
    <path
       style="fill:url(#linearGradient972);fill-opacity:1;stroke-width:0.08407073"
       d="m 44.863145,42.142107 c -1.282842,-0.493269 -1.94307,-2.131947 -1.377514,-3.418981 0.213493,-0.485846 1.043193,-1.327299 1.3961,-1.415871 0.198191,-0.04975 0.205976,-0.07846 0.205976,-0.759823 0,-0.493192 -0.0319,-0.717948 -0.105088,-0.740492 -1.771235,-0.545529 -2.800971,-1.821663 -2.876272,-3.564509 l -0.02725,-0.63079 -1.16494,-0.679811 -1.164939,-0.679812 -0.498327,0.265551 c -1.376298,0.733403 -3.081214,0.552926 -4.327544,-0.458103 l -0.370121,-0.300243 -0.554657,0.304348 -0.554657,0.304355 -0.04656,0.699611 c -0.07419,1.114862 -0.55791,1.850444 -1.504477,2.287843 -0.554004,0.256 -1.655381,0.243299 -2.209935,-0.02548 -1.19371,-0.578567 -1.785912,-2.012489 -1.329462,-3.219075 0.183298,-0.48453 0.851859,-1.328179 1.052535,-1.328179 0.05941,0 0.155118,-0.05675 0.21268,-0.126108 0.05757,-0.06936 0.184589,-0.126105 0.28228,-0.126105 0.130862,0 0.08942,0.04653 -0.157419,0.176751 -0.678727,0.358064 -1.117411,0.940905 -1.298149,1.724741 -0.334223,1.449478 0.839859,2.909567 2.350278,2.922807 0.946954,0.0083 1.740027,-0.494249 2.191563,-1.388735 0.283083,-0.560786 0.328454,-1.201162 0.120383,-1.699146 -0.156122,-0.373655 -0.156064,-0.391287 0.0013,-0.391287 0.100252,0 0.956342,-0.427145 1.12852,-0.563071 0.02028,-0.01602 -0.04543,-0.198525 -0.146032,-0.405586 -0.177445,-0.365235 -0.318658,-0.453931 -0.483541,-0.303709 -0.04393,0.04002 -0.295275,0.188904 -0.55855,0.330848 l -0.478685,0.258084 -0.306348,-0.243455 c -0.168482,-0.133902 -0.381533,-0.267321 -0.473439,-0.29649 -0.0919,-0.02917 -0.15022,-0.06991 -0.129592,-0.09055 0.05752,-0.05751 0.499463,0.149526 0.70487,0.330216 0.182264,0.160333 0.186605,0.159288 0.809842,-0.195309 l 0.626596,-0.356507 -0.08326,-0.301546 c -0.0458,-0.165848 -0.06876,-0.662554 -0.05104,-1.103788 0.02853,-0.710157 0.0667,-0.874512 0.332577,-1.431798 0.465432,-0.975567 1.261382,-1.684373 2.236692,-1.991814 l 0.443136,-0.139684 -8.4e-5,-1.140619 -8.4e-5,-1.14062 -0.498685,-0.146539 c -0.968967,-0.284733 -1.870918,-1.165641 -2.28262,-2.229366 -0.195652,-0.505514 -0.270351,-1.693996 -0.142471,-2.266764 0.05902,-0.26433 0.04637,-0.279386 -0.514704,-0.612714 L 32.666816,15.493058 32.22213,15.76949 c -0.429715,0.267126 -0.474656,0.276432 -1.334852,0.276432 -1.059177,0 -1.358744,-0.122012 -1.9707,-0.802653 -0.829626,-0.922744 -0.865179,-2.316437 -0.08518,-3.339068 0.260079,-0.340983 1.021308,-0.862315 1.248663,-0.855158 0.154017,0.0048 0.151849,0.01232 -0.02407,0.08291 -0.37984,0.152413 -0.950477,0.601323 -1.152567,0.906701 -0.663737,1.002975 -0.591131,2.177344 0.188207,3.044155 0.571907,0.6361 0.924719,0.792746 1.788229,0.793965 0.727024,0.001 0.897678,-0.05853 1.609207,-0.5616 0.112608,-0.07962 0.271571,-0.02142 0.864843,0.316602 0.608346,0.346614 0.718956,0.441567 0.678312,0.58229 -0.285852,0.989692 -0.240357,1.736902 0.158845,2.608873 0.292584,0.639087 0.603236,1.020484 1.173588,1.440845 1.930757,1.42301 4.625609,0.585875 5.529384,-1.717663 0.147523,-0.376006 0.190834,-0.662789 0.19623,-1.299356 0.0038,-0.449271 0.04414,-0.852223 0.08963,-0.895449 0.04548,-0.04322 0.527225,-0.331814 1.070532,-0.641302 0.847081,-0.482568 1.150936,-0.714973 0.934713,-0.714973 -0.02918,0 -0.52226,0.268383 -1.095736,0.596408 -0.573477,0.328025 -1.096077,0.57592 -1.161335,0.550877 -0.06526,-0.02504 -0.143864,-0.17993 -0.174681,-0.344195 -0.03082,-0.164267 -0.08832,-0.298666 -0.127786,-0.298666 -0.03947,0 -0.110545,-0.07248 -0.157952,-0.161059 -0.0771,-0.144062 0.02461,-0.225758 0.963856,-0.774193 0.960138,-0.560635 1.199607,-0.746163 0.963101,-0.746163 -0.04782,0 -0.515221,0.245906 -1.038661,0.54646 -0.523442,0.300552 -1.008096,0.546459 -1.07701,0.546459 -0.122906,0 -0.463844,-0.312515 -0.396051,-0.363032 0.01898,-0.01415 0.557267,-0.320309 1.196187,-0.680362 0.63892,-0.360053 1.143637,-0.672678 1.121595,-0.694721 -0.02204,-0.02204 -0.57164,0.265435 -1.221329,0.638842 -0.649686,0.373406 -1.203701,0.67892 -1.231143,0.67892 -0.02744,0 -0.189755,-0.09558 -0.360698,-0.212394 -0.769195,-0.525642 -2.000268,-0.679104 -2.991577,-0.37292 -0.635479,0.19628 -1.511037,0.810711 -1.773313,1.244442 -0.09339,0.154445 -0.265087,0.394026 -0.381544,0.532402 l -0.211736,0.251592 -0.607953,-0.35051 c -0.4239,-0.244397 -0.607952,-0.399694 -0.607952,-0.512973 0,-0.08936 0.117097,-0.379281 0.260214,-0.644281 0.23948,-0.443429 0.256534,-0.52801 0.214039,-1.061565 -0.08032,-1.008521 -0.549425,-1.710117 -1.438312,-2.151162 -0.293504,-0.14563 -0.305166,-0.160955 -0.08682,-0.114115 0.138717,0.02976 0.406466,0.159199 0.594998,0.287645 0.71089,0.484327 1.128452,1.30501 1.128452,2.217884 v 0.541443 l 0.538401,0.301091 0.538402,0.301092 0.554501,-0.419699 c 1.211145,-0.916714 2.987097,-1.033007 4.337718,-0.284044 l 0.378318,0.209789 1.155066,-0.659513 1.155064,-0.659513 0.0022,-0.420353 c 0.0053,-1.032274 0.413352,-2.029046 1.119955,-2.7356495 0.41225,-0.412252 1.444407,-1.005498 1.74941,-1.005498 0.140647,0 0.156843,-0.07303 0.156843,-0.707101 v -0.707102 l -0.376558,-0.182242 c -0.521821,-0.252608 -1.104858,-0.924085 -1.262085,-1.453528 -0.190699,-0.64215 -0.163154,-1.366744 0.07102,-1.868164 0.317872,-0.680649 0.826684,-1.199891 1.31532,-1.342284 0.131026,-0.03818 0.06394,0.03348 -0.178136,0.190305 -0.675151,0.437368 -1.063282,1.084062 -1.139317,1.898295 -0.06622,0.70915 0.121236,1.26441 0.610632,1.808739 0.548029,0.609539 0.985107,0.794368 1.825944,0.772142 0.805207,-0.02129 1.098424,-0.129394 1.596713,-0.5887 1.174215,-1.082353 1.013393,-2.962597 -0.33082,-3.867778 -0.260569,-0.175467 -0.332964,-0.25384 -0.199176,-0.215633 0.374901,0.107065 0.957405,0.670771 1.219026,1.179684 0.223185,0.434154 0.25198,0.573475 0.250197,1.210664 -0.0016,0.615277 -0.03478,0.782726 -0.227215,1.150776 -0.259799,0.496894 -0.874581,1.07352 -1.291129,1.210994 l -0.287161,0.09477 v 0.692188 0.692188 l 0.423684,0.108588 c 0.530073,0.135853 1.337105,0.668231 1.710344,1.128268 0.65421,0.8063535 0.939437,1.7168045 0.870517,2.7787365 -0.02434,0.375165 -0.05774,0.734418 -0.07419,0.798339 -0.01888,0.07329 0.326971,0.326306 0.93625,0.684962 l 0.966165,0.568743 0.326556,-0.295025 c 0.445294,-0.402295 1.26646,-0.771283 1.955015,-0.878481 1.068992,-0.166427 2.286833,0.183692 3.120111,0.896999 l 0.356141,0.304871 0.57302,-0.313372 0.573016,-0.313373 -0.03309,-0.469842 c -0.06992,-0.992699 0.723871,-2.240458 1.579635,-2.483019 0.163484,-0.04634 0.144807,-0.01891 -0.08407,0.12345 -0.707958,0.440349 -1.068707,0.937918 -1.255367,1.731486 -0.125994,0.53566 -0.05891,1.014908 0.207241,1.480411 0.220447,0.385575 0.248431,0.48535 0.136117,0.48535 -0.03921,0 -0.138539,-0.149099 -0.220714,-0.331331 -0.08217,-0.182232 -0.191958,-0.347656 -0.243961,-0.367609 -0.05201,-0.01995 -0.348572,0.115435 -0.659037,0.30086 l -0.564485,0.337137 0.165149,0.209951 c 0.09083,0.115473 0.165146,0.262783 0.165146,0.327356 0,0.230477 0.235795,0.200545 0.73777,-0.09365 0.280253,-0.164251 0.550472,-0.298638 0.600492,-0.298638 0.218455,0 0.04892,0.157634 -0.518031,0.481661 -0.576258,0.329349 -0.617383,0.340437 -0.765581,0.206421 -0.08614,-0.07789 -0.226668,-0.278885 -0.312292,-0.446649 -0.510246,-0.999729 -2.223976,-1.789144 -3.454,-1.591054 -0.642959,0.103545 -1.461013,0.481576 -1.899622,0.877834 -0.184856,0.167005 -0.378806,0.303646 -0.430999,0.303646 -0.05219,0 -0.0949,0.0698 -0.0949,0.155111 0,0.08531 -0.07207,0.220328 -0.160142,0.300037 -0.184709,0.16716 -0.261385,0.137102 -1.460641,-0.572577 -0.359684,-0.212847 -0.690714,-0.386996 -0.735621,-0.386996 -0.225185,0 0.0042,0.174641 0.883209,0.672566 0.530606,0.300553 0.985179,0.606572 1.010157,0.680043 0.02498,0.07347 -0.01363,0.27491 -0.0858,0.447643 -0.190789,0.456624 -0.248015,1.294382 -0.12463,1.82449 0.249905,1.073667 1.065572,2.111032 1.985611,2.525302 0.803638,0.361859 1.476538,0.446044 2.264451,0.283295 0.850372,-0.175649 1.370729,-0.463258 1.928875,-1.066124 0.945137,-1.02086 1.224033,-2.201328 0.841014,-3.559694 -0.0395,-0.140074 0.06961,-0.234803 0.653626,-0.567478 0.385571,-0.219635 0.740514,-0.399336 0.788761,-0.399336 0.04825,0 0.15303,0.07217 0.232855,0.160368 0.218626,0.24158 0.955032,0.52852 1.388363,0.540975 0.947985,0.02725 1.801483,-0.492016 2.262526,-1.376504 0.267101,-0.512426 0.281047,-0.580781 0.241262,-1.182503 -0.06266,-0.947579 -0.435895,-1.583861 -1.179116,-2.010116 -0.511168,-0.293166 -0.471887,-0.328651 0.07778,-0.07028 0.445441,0.209383 0.955089,0.805901 1.170547,1.370074 0.226891,0.594102 0.14264,1.571694 -0.185907,2.15723 -0.298721,0.532376 -0.897816,1.020958 -1.448174,1.181038 -0.821791,0.23903 -1.955819,0.05196 -2.462004,-0.406128 -0.136714,-0.123724 -0.193025,-0.107031 -0.744842,0.220796 -0.405121,0.240679 -0.58218,0.393123 -0.550993,0.474395 0.02526,0.06587 0.0697,0.355726 0.09872,0.644139 0.06495,0.645527 -0.07764,1.469923 -0.356056,2.058479 -0.275471,0.582351 -0.961126,1.321877 -1.515827,1.634932 l -0.446316,0.251891 v 1.325156 1.325158 l 0.492829,0.304192 c 1.241933,0.766564 1.830967,1.93731 1.757618,3.493394 -0.02094,0.444494 -0.05352,0.856215 -0.07237,0.914941 -0.02005,0.0625 0.213692,0.24553 0.563802,0.441447 0.593867,0.332319 0.599491,0.333575 0.798675,0.178021 0.110325,-0.08616 0.295174,-0.185021 0.410771,-0.21969 0.140654,-0.04219 0.08504,0.023 -0.168143,0.19708 -0.208074,0.143068 -0.419906,0.26081 -0.470736,0.261652 -0.05083,9.63e-4 -0.348245,-0.134229 -0.660922,-0.30016 -0.312673,-0.165928 -0.59606,-0.269968 -0.629744,-0.231194 -0.03368,0.03877 -0.144407,0.209704 -0.246048,0.379852 l -0.184802,0.309359 0.52865,0.310315 c 0.290758,0.170672 0.576978,0.31757 0.636048,0.326439 0.133899,0.02011 0.13508,0.03578 0.02463,0.32633 -0.165905,0.436366 -0.110878,1.283163 0.111822,1.720771 0.458326,0.900605 1.246025,1.404979 2.194213,1.404979 0.948191,0 1.73589,-0.504374 2.194213,-1.404979 0.22065,-0.433576 0.272208,-1.196221 0.118316,-1.750167 -0.135891,-0.489137 -0.539523,-1.041062 -0.976559,-1.335337 -0.252059,-0.169725 -0.329854,-0.252485 -0.201014,-0.213857 0.793747,0.23799 1.459555,1.313807 1.457677,2.35532 -0.0019,1.008649 -0.545585,1.88174 -1.449282,2.327026 -0.555868,0.273894 -1.730835,0.273894 -2.286699,0 -0.90602,-0.44643 -1.444522,-1.31396 -1.453549,-2.341664 l -0.0053,-0.60768 -0.588148,-0.336142 -0.588144,-0.336142 -0.342164,0.315393 c -0.747072,0.688626 -1.988553,1.038237 -3.059038,0.861449 -0.750193,-0.12389 -1.282849,-0.355452 -1.863073,-0.809932 l -0.467593,-0.366259 -0.965937,0.560631 c -0.903198,0.524214 -0.962105,0.574281 -0.906941,0.770805 0.03245,0.115597 0.06277,0.518921 0.06738,0.896271 0.02167,1.773871 -0.990843,3.16838 -2.702902,3.722665 l -0.315266,0.102067 v 0.698965 c 0,0.671652 0.008,0.700989 0.205977,0.750666 0.353018,0.0886 1.182619,0.930029 1.395977,1.415871 0.573045,1.304911 -0.09381,2.93391 -1.401299,3.423105 -0.598968,0.224102 -1.433436,0.222401 -2.02256,-0.0041 z m 1.85442,-0.164019 c 0.866564,-0.324223 1.577801,-1.281193 1.585059,-2.132693 0.0071,-0.837214 -0.217002,-1.408239 -0.748724,-1.907509 -0.597335,-0.560876 -0.652394,-0.58003 -1.667521,-0.58003 -1.015128,0 -1.070187,0.01916 -1.667521,0.58003 -1.016913,0.954851 -1.000135,2.531785 0.03765,3.538924 0.650662,0.631444 1.597633,0.824326 2.461055,0.501278 z m -0.284727,-5.470137 v -0.663368 h -0.546459 -0.54646 v 0.667239 0.667241 l 0.273231,0.02634 c 0.150276,0.01449 0.396181,0.01274 0.546459,-0.0039 l 0.273229,-0.03022 v -0.663318 z m 0.943555,-1.141308 c 0.643845,-0.305003 1.325239,-0.902069 1.637433,-1.434786 0.513598,-0.876386 0.662469,-2.016566 0.372771,-2.855011 -0.08325,-0.240947 -0.129307,-0.471724 -0.102342,-0.512831 0.02698,-0.04111 0.49844,-0.33415 1.047728,-0.651205 0.549287,-0.317055 0.958384,-0.589902 0.909104,-0.606327 -0.04928,-0.01643 -0.526812,0.223238 -1.061185,0.532587 -1.043918,0.604324 -1.103572,0.610676 -1.303737,0.138792 -0.134036,-0.315984 -1.128122,-1.076986 -1.686691,-1.291215 -0.990521,-0.379893 -2.100652,-0.281267 -3.096463,0.2751 l -0.448236,0.250436 -1.17907,-0.685032 c -0.648487,-0.376767 -1.208624,-0.653115 -1.244746,-0.614105 -0.03612,0.03901 -0.08888,0.148124 -0.117242,0.242479 -0.04441,0.147769 0.09387,0.256476 0.997231,0.783957 0.576835,0.336822 1.089438,0.58728 1.139115,0.556579 0.06032,-0.03728 0.06258,-0.08925 0.0068,-0.15643 -0.05994,-0.07222 -0.03738,-0.100605 0.07999,-0.100605 0.08992,0 0.163484,0.02555 0.163484,0.05674 0,0.134432 -0.308307,0.420033 -0.462389,0.428333 -0.09248,0.005 -0.596784,-0.245908 -1.120681,-0.55754 -0.523898,-0.311627 -0.974727,-0.544409 -1.001844,-0.517292 -0.06249,0.06249 -0.142938,0.0089 1.007195,0.670463 0.542541,0.31206 1.007361,0.601233 1.032933,0.64261 0.02557,0.04137 -0.03055,0.152271 -0.124714,0.246436 -0.09416,0.09416 -0.171207,0.212779 -0.171207,0.26359 0,0.05081 -0.06058,0.220056 -0.13463,0.376096 l -0.134631,0.283713 -0.264705,-0.193826 c -0.40624,-0.297464 -1.98933,-1.173704 -2.036067,-1.126966 -0.02278,0.02278 0.461048,0.339726 1.075157,0.704338 l 1.116564,0.662933 0.007,0.630532 c 0.0086,0.769143 0.07623,1.147186 0.297537,1.663806 0.392608,0.916509 1.209128,1.680386 2.175479,2.035231 0.36587,0.134347 0.629102,0.165238 1.26106,0.147984 0.697631,-0.01903 0.870178,-0.05568 1.363907,-0.289566 z m 8.178122,-4.729404 c 0.779972,-0.274003 1.560151,-0.896575 1.861678,-1.485594 0.09206,-0.179832 0.255891,-0.491829 0.364065,-0.693322 0.137226,-0.255603 0.208827,-0.555515 0.236843,-0.992078 0.0955,-1.488098 -0.713388,-2.87121 -2.066285,-3.53312 -0.249857,-0.122244 -0.408712,-0.245149 -0.357646,-0.276709 0.06171,-0.03815 0.08425,-0.48429 0.06865,-1.359447 l -0.02323,-1.302669 -0.531671,0.118182 -0.531672,0.118182 0.02727,1.169915 0.02726,1.169916 -0.248009,-8.5e-5 c -0.192895,-8.4e-5 -0.225591,-0.02254 -0.147123,-0.101004 0.06787,-0.06787 0.100885,-0.45025 0.100885,-1.168605 v -1.06772 l -0.441371,-0.09706 c -0.242756,-0.05338 -0.507579,-0.110362 -0.588497,-0.126621 -0.13503,-0.02713 -0.147124,0.0769 -0.147124,1.265665 0,0.807437 0.03165,1.295226 0.08407,1.295226 0.216535,0 0.03978,0.170003 -0.399336,0.384087 -0.669151,0.326234 -1.390772,1.068995 -1.725837,1.776396 -0.251599,0.531185 -0.270841,0.634567 -0.270841,1.454947 0,0.853817 0.01046,0.903786 0.315263,1.505488 0.361063,0.712766 0.367354,0.746562 0.168142,0.903256 -0.12973,0.102041 -0.121796,0.104939 0.06713,0.0245 0.192101,-0.08178 0.252943,-0.05549 0.588495,0.254296 0.969448,0.895017 2.352946,1.191183 3.568932,0.764006 z m -17.354865,0.05026 c 0.257472,-0.06061 0.689798,-0.230265 0.960724,-0.377004 0.270927,-0.146743 0.542624,-0.2668 0.603771,-0.2668 0.06115,0 0.111176,-0.04222 0.111176,-0.09383 0,-0.204642 0.605186,-0.915024 0.779523,-0.915024 0.09719,0 0.570465,0.229693 1.051725,0.510433 0.48126,0.280739 0.888857,0.496598 0.90577,0.479685 0.01691,-0.01691 -0.393379,-0.278052 -0.911761,-0.580306 -0.913023,-0.532358 -0.942085,-0.55827 -0.928799,-0.828086 0.0075,-0.153193 0.07848,-0.422162 0.157645,-0.597712 0.238886,-0.529755 0.143268,-1.648941 -0.202407,-2.369112 -0.479247,-0.998454 -1.597782,-1.897651 -2.549934,-2.049907 -0.175702,-0.0281 -0.31946,-0.08408 -0.31946,-0.124409 0,-0.04033 0.03784,-0.07333 0.08407,-0.07333 0.0519,0 0.08407,-0.434366 0.08407,-1.134954 v -1.134956 h -0.588494 -0.588496 v 1.134956 c 0,0.826695 0.0274,1.134954 0.100885,1.134954 0.198164,0 -0.06223,0.137813 -0.522999,0.2768 -0.984137,0.296853 -1.784864,1.003058 -2.259877,1.99311 -0.28511,0.594243 -0.30252,0.678914 -0.30252,1.471236 0,0.824613 0.007,0.854393 0.36278,1.555309 0.544465,1.072487 1.268782,1.669735 2.39176,1.972167 0.559991,0.150813 0.991994,0.155395 1.580846,0.01678 z m 4.312946,-0.265487 c 0.04241,-0.142685 -0.09167,-0.249951 -0.885658,-0.708505 l -0.935636,-0.540365 -0.160438,0.198132 c -0.149317,0.184399 -0.15053,0.203676 -0.01751,0.278115 0.07861,0.04399 0.523964,0.301409 0.98968,0.572035 0.465716,0.270628 0.872143,0.464305 0.903171,0.430392 0.03103,-0.03392 0.0789,-0.137328 0.106394,-0.229804 z m 7.451213,-0.0059 c 0,-0.02313 -0.07566,-0.0016 -0.16814,0.04795 -0.09248,0.04949 -0.168142,0.108905 -0.168142,0.132024 0,0.02313 0.07566,0.0016 0.168142,-0.04795 0.09248,-0.04949 0.16814,-0.108905 0.16814,-0.132024 z M 50.384163,30.1639 c 0,-0.02313 -0.07567,-0.0016 -0.168142,0.04795 -0.09248,0.04949 -0.168139,0.108905 -0.168139,0.132024 0,0.02313 0.07566,0.0016 0.168139,-0.04795 0.09248,-0.04949 0.168142,-0.108904 0.168142,-0.132024 z m 8.067788,0.01468 c -0.142745,-0.13605 -1.165565,-0.706309 -1.0642,-0.593327 0.0663,0.0739 1.071235,0.689668 1.148273,0.703601 0.02148,0.0039 -0.01637,-0.04574 -0.08407,-0.110274 z M 34.448556,29.528023 c 0.04393,-0.04005 0.05052,-0.07283 0.01467,-0.07283 -0.09293,0 -1.22949,0.670708 -1.22949,0.725549 0,0.04926 1.083291,-0.53279 1.214822,-0.652724 z m 16.577089,-0.617949 c -0.01757,-0.04697 -0.07317,-0.0764 -0.123524,-0.06539 -0.05035,0.01099 -0.06995,-0.03629 -0.04355,-0.105089 0.02644,-0.06892 0.0016,-0.125098 -0.0553,-0.125098 -0.184704,0 -1.935526,1.041787 -1.901943,1.131709 0.01792,0.04803 0.07798,0.07692 0.133439,0.06422 0.05546,-0.01271 0.07686,0.01567 0.04758,0.06305 -0.0293,0.04739 -0.03127,0.121733 -0.0044,0.165217 0.06286,0.101698 1.990164,-1.015112 1.947675,-1.128612 z m -1.818473,0.845289 c 0,-0.02313 0.07567,-0.08253 0.168142,-0.132021 0.09248,-0.04949 0.168143,-0.07107 0.168143,-0.04795 0,0.02313 -0.07567,0.08253 -0.168143,0.132022 -0.09248,0.04949 -0.168142,0.07108 -0.168142,0.04795 z m 0.420355,-0.252213 c 0,-0.02313 0.07566,-0.08253 0.168142,-0.132021 0.09248,-0.04949 0.16814,-0.07107 0.16814,-0.04795 0,0.02313 -0.07566,0.08253 -0.16814,0.13202 -0.09248,0.04949 -0.168142,0.07108 -0.168142,0.04795 z m 0.588494,-0.336282 c 0,-0.02313 0.07566,-0.08253 0.168142,-0.13202 0.09248,-0.04949 0.168143,-0.07107 0.168143,-0.04795 0,0.02313 -0.07567,0.08253 -0.168143,0.132022 -0.09248,0.04949 -0.168142,0.07107 -0.168142,0.04795 z m 0.756636,0.660734 c 0,-0.02313 -0.07566,-0.0016 -0.168139,0.04795 -0.09248,0.04949 -0.168142,0.108901 -0.168142,0.13202 0,0.02313 0.07566,0.0016 0.168142,-0.04795 0.09248,-0.04949 0.168139,-0.108902 0.168139,-0.13202 z m -1.175418,-0.911153 0.881172,-0.496717 v -1.142661 c 0,-1.105464 0.0085,-1.160456 0.26149,-1.689124 0.332561,-0.694983 0.833932,-1.258535 1.467677,-1.649706 l 0.498707,-0.30782 v -1.362449 -1.36245 L 52.56313,20.750781 c -0.772953,-0.348554 -1.611724,-1.471129 -1.843622,-2.467433 -0.100148,-0.430258 -0.0796,-1.649256 0.03276,-1.943181 0.03524,-0.0922 -0.214604,-0.276169 -0.929253,-0.684234 l -0.977456,-0.558127 -0.429718,0.35001 c -1.145744,0.933221 -2.843012,1.108515 -4.196389,0.433401 l -0.589654,-0.29414 -1.141618,0.652976 -1.141617,0.652976 -0.05607,0.669365 c -0.06448,0.769636 -0.299412,1.461213 -0.691174,2.034606 -0.377356,0.552309 -1.207969,1.166068 -1.822413,1.346623 l -0.498685,0.14654 -8.5e-5,1.149215 -8.3e-5,1.149217 0.415045,0.137856 c 0.631849,0.209866 1.380429,0.735997 1.756859,1.234787 0.535742,0.70989 0.705902,1.17754 0.750977,2.063926 l 0.0394,0.774827 1.176583,0.683584 1.176584,0.683586 0.389837,-0.210381 c 1.370179,-0.739428 3.077911,-0.628699 4.23544,0.27462 0.289345,0.225801 0.564616,0.40407 0.611718,0.396155 0.0471,-0.0079 0.482169,-0.237914 0.966814,-0.511106 z m 4.684662,-7.174738 c -0.01617,-0.312112 -0.02942,-0.05675 -0.02942,0.567478 0,0.624225 0.01325,0.879589 0.02942,0.567477 0.01617,-0.312113 0.01617,-0.822842 0,-1.134955 z M 42.434247,16.00389 c 0.643162,-0.369911 1.20146,-0.672566 1.240661,-0.672566 0.0392,0 0.214815,0.09499 0.390256,0.211093 0.617806,0.408845 1.238091,0.566545 2.073427,0.527148 0.893328,-0.04213 1.447496,-0.250995 2.120584,-0.799235 0.242661,-0.197647 0.504974,-0.35936 0.582921,-0.35936 0.07795,0 0.572409,0.250097 1.098806,0.555772 0.526397,0.305675 0.976,0.536856 0.999119,0.513737 0.02313,-0.02312 -0.398534,-0.297872 -0.937008,-0.610561 -0.538475,-0.312688 -0.997455,-0.616496 -1.019955,-0.675129 -0.02249,-0.05863 0.09552,-0.390243 0.262257,-0.736911 0.499032,-1.037528 0.493414,-2.010606 -0.01754,-3.040267 C 48.778622,10.01251 47.882438,9.2385865 47.030734,9.0203015 46.539462,8.8943925 46.51815,8.8454945 46.576212,7.9774645 l 0.04233,-0.632859 h -0.59727 -0.59727 v 0.665689 c 0,0.766479 -0.04431,0.931654 -0.249912,0.931654 -0.08132,0 -0.412179,0.132237 -0.735246,0.293862 -1.10144,0.551029 -1.831262,1.5242675 -2.046595,2.7291965 -0.09638,0.539288 -0.08976,0.648481 0.07592,1.253037 0.09982,0.364248 0.180644,0.714465 0.179602,0.778261 -10e-4,0.0638 -0.436107,0.359438 -0.966813,0.656982 -0.530706,0.297543 -0.964919,0.575872 -0.964919,0.618508 0,0.111394 0.176398,0.02988 1.057275,-0.488537 0.430614,-0.253431 0.848805,-0.460782 0.929313,-0.460782 0.160019,0 0.535534,0.315123 0.535534,0.449405 0,0.0461 0.06342,0.153893 0.140933,0.239544 0.08592,0.09494 0.110533,0.185339 0.06306,0.231578 -0.04283,0.04172 -0.550779,0.346284 -1.128765,0.676816 -0.577987,0.330533 -1.086824,0.635994 -1.130751,0.678802 -0.214164,0.208713 0.181882,0.02052 1.251625,-0.594731 z m 3.286156,-7.2335855 c 0.02024,-0.03275 0.132761,-0.05955 0.250045,-0.05955 0.117284,0 0.229805,0.0268 0.250048,0.05955 0.02024,0.03275 -0.09228,0.05955 -0.250048,0.05955 -0.157768,0 -0.270288,-0.0268 -0.250045,-0.05955 z m -2.818535,5.9627305 c 0,-0.04085 -0.05898,-0.07428 -0.131068,-0.07428 -0.08073,0 -0.107056,-0.03885 -0.06855,-0.101155 0.03438,-0.05564 -0.105252,-0.0041 -0.310303,0.114592 -0.205052,0.118659 -0.627073,0.360756 -0.937826,0.537992 -0.310752,0.177235 -0.552295,0.334956 -0.536762,0.35049 0.01553,0.01553 0.396003,-0.184086 0.845486,-0.443599 0.449485,-0.259512 0.834374,-0.454711 0.85531,-0.433774 0.02094,0.02094 -0.351186,0.256738 -0.82694,0.524003 -1.021904,0.574073 -0.936068,0.513466 -0.872613,0.616137 0.05619,0.09091 1.983266,-0.968614 1.983266,-1.09041 z m -8.651354,0.703532 c 0.04832,-0.127073 0.143893,-0.292977 0.2124,-0.368677 0.112782,-0.124621 0.0705,-0.168355 -0.447222,-0.462543 -0.73086,-0.415302 -0.697888,-0.403593 -0.697888,-0.247842 0,0.07321 -0.02838,0.133352 -0.06305,0.133643 -0.06557,6.04e-4 -0.38047,0.510152 -0.338908,0.548455 0.122067,0.112491 1.057215,0.627621 1.13966,0.627788 0.05894,8.4e-5 0.146699,-0.103752 0.195011,-0.230824 z m 17.122089,-0.208504 c -0.03548,-0.106437 -1.77747,-1.1578 -1.918347,-1.1578 -0.239334,0 0.02212,0.213042 0.866853,0.706313 0.976007,0.569932 1.110179,0.627543 1.051494,0.451487 z m 0.09748,-0.266585 c -0.150759,-0.144452 -1.934489,-1.124988 -1.909359,-1.049597 0.0382,0.114596 1.846769,1.180778 1.904697,1.122851 0.02183,-0.02183 0.02392,-0.05479 0.0047,-0.07325 z m -9.724746,-1.124225 c 0.311803,-0.172397 0.567168,-0.360739 0.567477,-0.418538 7.42e-4,-0.145153 -0.01235,-0.141019 -0.56241,0.177018 -0.268351,0.15516 -0.763075,0.441082 -1.099386,0.635385 -0.336311,0.194303 -0.589015,0.389617 -0.561566,0.434031 0.02783,0.04503 0.279768,-0.05092 0.56944,-0.216846 0.285741,-0.163679 0.774642,-0.438652 1.086445,-0.61105 z m 40.039246,23.912889 c -0.79032,-0.262781 -1.34228,-0.752503 -1.66236,-1.474915 -0.51654,-1.165835 0.0761,-2.789272 1.20445,-3.299206 l 0.41588,-0.187954 v -8.097843 c 0,-6.787945 -0.0185,-8.097839 -0.11481,-8.097839 -0.2879,0 -1.31821,-0.617172 -1.68509,-1.009396 -0.36027,-0.38515 -0.89014,-1.323003 -0.8903,-1.575779 -5e-5,-0.08232 -0.72792,-0.105089 -3.35896,-0.105089 h -3.35889 l -0.16068,0.357301 c -0.21196,0.471329 -0.71423,0.963001 -1.23436,1.208299 -0.597734,0.281897 -1.668191,0.2827 -2.271616,0.0017 -0.92985,-0.433004 -1.52306,-1.459716 -1.455023,-2.518305 0.05678,-0.883333 0.666202,-1.816986 1.380922,-2.115617 0.424062,-0.177181 0.475067,-0.153888 0.09845,0.04496 -1.035238,0.546601 -1.572458,1.875821 -1.1898,2.943849 0.204871,0.571807 0.796215,1.226733 1.333587,1.476971 1.145608,0.533472 2.64265,-0.03801 3.1697,-1.210002 l 0.16067,-0.3573 h 3.52704 c 2.76554,0 3.52705,0.02269 3.5271,0.105088 3e-5,0.05779 0.11183,0.341342 0.24844,0.630096 0.34249,0.723977 0.90855,1.302923 1.62374,1.660719 0.55625,0.278278 0.63486,0.294357 1.43883,0.294294 0.76429,-6e-5 0.90276,-0.02482 1.36706,-0.24448 0.8749,-0.413901 1.53518,-1.126924 1.84034,-1.987362 l 0.15051,-0.424386 2.991834,0.02713 c 1.64551,0.01492 3.17156,0.03566 3.39123,0.04607 0.65454,0.03103 0.40666,-0.144309 -0.2799,-0.19798 -0.34316,-0.02683 -1.83104,-0.05665 -3.3064,-0.06627 -1.47535,-0.0096 -2.714354,-0.03719 -2.753314,-0.06128 -0.039,-0.02408 -0.0709,-0.304956 -0.0709,-0.624164 0,-0.897822 -0.23611,-1.427249 -0.95884,-2.149973 -0.78226,-0.7822635 -1.28462,-0.9935825 -2.36196,-0.9935825 -1.00378,0 -1.54574,0.210549 -2.2587,0.8774885 -0.72169,0.675103 -1.00475,1.252822 -1.06103,2.165458 l -0.0431,0.699036 -3.39407,-0.0059 c -2.62895,-0.0045 -3.42327,0.01823 -3.52362,0.101026 -0.1073,0.08854 -0.1224,0.08524 -0.0879,-0.01921 0.036,-0.108858 0.5093,-0.12911 3.46057,-0.148067 l 3.4189,-0.02196 v -0.461447 -0.461445 l -2.29093,-0.0089 c -1.26001,-0.0049 -2.63142,-0.03673 -3.04756,-0.07075 -0.50429,-0.04122 0.25535,-0.0663 2.27762,-0.07517 l 3.03425,-0.01333 0.10665,-0.357301 c 0.2625,-0.879451 1.13847,-1.833699 1.9978,-2.1763175 0.70404,-0.2807 2.11937,-0.280189 2.82492,0.001 0.91177,0.3633995 1.86824,1.4609235 2.04225,2.3434385 l 0.0539,0.273231 2.406534,0.0059 c 1.32359,0.0033 2.48219,0.03842 2.57466,0.07816 0.099,0.04253 -0.89543,0.07469 -2.41703,0.07816 l -2.585184,0.0059 v 0.204593 c 0,0.158653 0.0519,0.212456 0.2312,0.239615 l 0.231204,0.03503 -0.237054,0.01259 c -0.19491,0.01036 -0.23226,0.04621 -0.21018,0.201755 l 0.0269,0.189159 2.648234,0.01852 c 1.45652,0.01018 2.96034,0.04196 3.34181,0.0706 0.6816,0.05118 0.6936,0.05594 0.69437,0.275728 7.4e-4,0.123006 0.11201,0.417566 0.24795,0.654579 0.79614,1.388086 2.58946,1.653777 3.73087,0.55275 0.63607,-0.613559 0.90696,-1.451304 0.72266,-2.234842 -0.18666,-0.793568 -0.54741,-1.291137 -1.25537,-1.731486 -0.22887,-0.142361 -0.24755,-0.169787 -0.0841,-0.123449 0.53117,0.150553 1.16549,0.825324 1.42773,1.51877 0.46944,1.241343 -0.14745,2.683262 -1.38569,3.238888 -0.5502,0.24689 -1.51215,0.26716 -2.05973,0.0434 -0.56216,-0.229715 -1.03684,-0.659933 -1.31122,-1.188385 -0.14586,-0.280922 -0.31176,-0.48497 -0.41223,-0.507046 -0.0925,-0.02032 -1.55295,-0.04744 -3.24551,-0.06027 l -3.077364,-0.02333 -0.14905,0.420353 c -0.3036,0.856257 -0.96551,1.570158 -1.83887,1.983328 -0.28415,0.134427 -0.56393,0.244444 -0.62172,0.24448 -0.0833,5.3e-5 -0.10509,1.676674 -0.10509,8.102693 v 8.102612 l 0.27322,0.107707 c 0.68677,0.270725 1.21324,0.892556 1.45251,1.715631 0.33433,1.150065 -0.2275,2.393562 -1.33815,2.961694 -0.50189,0.256734 -1.43305,0.336997 -1.94289,0.167473 z m 1.7507,-0.318593 c 0.75196,-0.376087 1.3535,-1.186448 1.42711,-1.922507 0.0553,-0.552659 -0.15848,-1.331 -0.4902,-1.785136 -0.28013,-0.383492 -1.08075,-0.939659 -1.2584,-0.874174 -0.0558,0.02056 -0.0766,-2.709783 -0.0618,-8.11318 l 0.0222,-8.144167 h -0.58973 -0.58973 v 8.07079 8.070792 h 0.21018 c 0.1156,0 0.21017,0.03958 0.21017,0.08794 0,0.05089 -0.1571,0.07981 -0.37292,0.06864 -0.49268,-0.02552 -1.08488,0.333832 -1.45335,0.881845 -0.33424,0.497113 -0.4431,0.873444 -0.44132,1.525729 0.004,1.687977 1.89639,2.879318 3.38776,2.133424 z M 3.8257731,36.091918 c -0.588461,-0.29406 -0.881028,-0.603613 -1.175082,-1.243315 -0.18197,-0.395866 -0.202265,-0.536352 -0.170033,-1.176991 0.04138,-0.822465 0.153274,-1.097383 0.678607,-1.667301 0.303332,-0.329079 0.870229,-0.675198 0.959563,-0.58586 0.0175,0.01751 -0.08193,0.07894 -0.220972,0.136532 -0.294781,0.122101 -0.852555,0.702089 -1.058845,1.101009 -0.08421,0.162852 -0.161065,0.558763 -0.185979,0.958095 -0.03817,0.611759 -0.0206,0.723693 0.173769,1.107259 0.321441,0.634335 0.595698,0.916889 1.167114,1.202429 0.407268,0.203515 0.622767,0.25709 1.034087,0.25709 0.925184,0 1.856639,-0.612414 2.236068,-1.470177 0.553909,-1.252206 -0.123781,-2.859507 -1.332307,-3.159874 -0.496437,-0.123384 -0.580205,-0.246009 -0.168142,-0.246136 l 0.27323,-8.3e-5 0.320626,-1.576241 c 0.315877,-1.552899 0.84047,-4.096119 1.658923,-8.042438 0.229328,-1.105744 0.401606,-2.025798 0.38284,-2.044563 -0.08953,-0.08953 -1.005152,-0.27737 -1.058463,-0.217141 -0.0334,0.03774 -0.121157,0.371268 -0.195008,0.741179 -0.36077,1.807068 -1.365276,6.716903 -1.780155,8.70105 -0.256181,1.225181 -0.449406,2.270285 -0.429386,2.322453 0.02111,0.055 -0.05287,0.09485 -0.176084,0.09485 -0.116865,0 -0.174649,-0.02364 -0.128408,-0.05254 0.04624,-0.02888 0.335713,-1.28208 0.643271,-2.784845 0.307559,-1.502762 0.85318,-4.169906 1.212493,-5.926984 l 0.653295,-3.194688 -0.38383,-0.221267 c -0.211107,-0.121696 -0.584495,-0.433709 -0.829751,-0.693361 -1.71367,-1.814256 -1.185349,-4.890297 1.027789,-5.984089 1.179864,-0.583121 2.366516,-0.582055 3.5506799,0.0032 1.541463,0.761833 2.373034,2.616133 1.933352,4.311143 l -0.113296,0.43677 3.174562,4.762045 3.174562,4.762044 0.04972,-0.451513 c 0.06126,-0.556237 0.722883,-10.115185 0.722106,-10.432756 -4.13e-4,-0.168927 -0.06645,-0.263112 -0.251637,-0.358873 -0.820627,-0.424362 -1.271873,-1.169037 -1.328318,-2.19207 -0.03334,-0.604169 -0.01301,-0.72982 0.186218,-1.150942 0.233005,-0.492537 1.040718,-1.323505 1.286461,-1.323505 0.073,0 -0.01761,0.108338 -0.20284,0.242517 -1.033291,0.748512 -1.397344,1.972133 -0.903346,3.036242 0.409898,0.882947 0.929741,1.255616 1.940609,1.391195 0.617712,0.08285 0.734492,0.07535 1.131267,-0.07266 0.834816,-0.311416 1.590007,-1.350459 1.586929,-2.183411 -0.0036,-0.964735 -0.555455,-1.88708 -1.38617,-2.316633 -0.432575,-0.22368 -0.343205,-0.230708 0.151425,-0.01191 0.492005,0.217637 1.013474,0.812328 1.241276,1.41557 0.484005,1.281701 -0.202906,2.827857 -1.453698,3.272098 -0.279917,0.09942 -0.401392,0.188874 -0.401392,0.295592 0,0.215576 -0.743506,11.032205 -0.790298,11.497352 l -0.03846,0.382333 0.568683,0.264948 c 1.387178,0.646285 2.193702,1.921372 2.193702,3.468167 0,1.536056 -0.78514,2.788516 -2.174021,3.468016 -0.539178,0.263791 -0.594231,0.273136 -1.609162,0.273136 -1.0342,0 -1.060895,-0.0048 -1.681415,-0.303087 -1.59006,-0.76431 -2.434854,-2.463281 -2.084121,-4.191393 l 0.1273,-0.627222 -3.38985,-5.084351 c -1.994738,-2.991857 -3.4078259,-5.034606 -3.4335289,-4.96348 -0.02403,0.06648 -0.566458,2.670167 -1.205411,5.785974 l -1.161733,5.665104 0.436748,0.413059 c 0.597808,0.565385 0.828841,1.102238 0.825498,1.918228 -0.0043,1.057203 -0.461335,1.797386 -1.399061,2.265972 -0.445935,0.222836 -0.602042,0.25615 -1.200345,0.25615 -0.598854,0 -0.754242,-0.03323 -1.202229,-0.25709 z M 20.665159,34.75373 c 2.315172,-1.112952 2.843273,-4.017598 1.056267,-5.809654 -0.450369,-0.451643 -1.400057,-1.002144 -1.72883,-1.002144 -0.101599,0 -0.127774,-0.04254 -0.08875,-0.144238 0.0597,-0.155576 0.133224,-1.112308 0.595351,-7.747047 0.165429,-2.375054 0.289361,-4.328193 0.275406,-4.340308 -0.01396,-0.01212 -0.274241,-0.04791 -0.578413,-0.07956 l -0.553039,-0.05753 -0.104336,1.581471 c -0.05739,0.869809 -0.234059,3.416315 -0.392609,5.658902 -0.15855,2.242587 -0.288339,4.12472 -0.28842,4.182518 -8.2e-5,0.0578 -0.04744,0.104056 -0.105237,0.102794 -0.0578,-0.0013 -1.561225,-2.190532 -3.340945,-4.865048 l -3.235857,-4.862761 -0.233761,0.409301 c -0.128569,0.225115 -0.270828,0.409301 -0.316132,0.409301 -0.04531,0 -0.08237,0.04695 -0.08237,0.104329 0,0.174157 6.33915,9.643121 6.457391,9.645583 0.194305,0.004 0.01342,0.170433 -0.185287,0.170433 -0.159558,0 -0.718547,-0.790724 -3.35826,-4.750463 -2.967465,-4.451388 -3.177402,-4.743868 -3.33459,-4.645702 -0.09226,0.05762 -0.167749,0.128902 -0.167749,0.15841 0,0.02951 -0.113496,0.100659 -0.252213,0.158117 -0.138716,0.05746 -0.252211,0.137966 -0.252211,0.178908 0,0.04094 1.399607,2.17334 3.110238,4.738663 1.710632,2.565322 3.119868,4.709776 3.131635,4.765451 0.01177,0.05568 -0.03767,0.114335 -0.10986,0.130353 -0.09258,0.02053 -1.065095,-1.371701 -3.30076,-4.725342 -2.86238,-4.293755 -3.18785,-4.749855 -3.3588289,-4.706942 -0.104128,0.02613 -0.368654,0.07403 -0.587836,0.106443 l -0.398513,0.05893 3.4496759,5.17035 c 2.556817,3.832138 3.437299,5.213867 3.401858,5.338491 -0.243815,0.857331 -0.299839,1.365083 -0.208562,1.890199 0.247349,1.422997 1.220694,2.525461 2.647496,2.998696 0.208581,0.06919 0.62361,0.10213 1.092919,0.08677 0.657476,-0.02151 0.833761,-0.06184 1.345132,-0.307669 z m -4.62589,-5.277505 c 0.130307,-0.268863 0.212176,-0.345443 0.212176,-0.198472 0,0.04111 -0.07753,0.164069 -0.172299,0.273228 l -0.172301,0.198475 z m -9.8206329,1.555308 c -0.02332,-0.05779 -0.0424,-0.01052 -0.0424,0.105088 0,0.115597 0.01908,0.162887 0.0424,0.105089 0.02332,-0.05779 0.02332,-0.152379 0,-0.210177 z m 0.08407,-0.420352 c -0.02332,-0.0578 -0.0424,-0.01052 -0.0424,0.105085 0,0.1156 0.01908,0.162887 0.0424,0.105089 0.02332,-0.0578 0.02332,-0.152376 0,-0.210174 z m 0.08407,-0.420355 c -0.02332,-0.05779 -0.0424,-0.01052 -0.0424,0.105089 0,0.115597 0.01908,0.162887 0.0424,0.105089 0.02332,-0.05779 0.02332,-0.152379 0,-0.210178 z m 0.08407,-0.420355 c -0.02332,-0.05779 -0.0424,-0.01052 -0.0424,0.105089 0,0.115597 0.01908,0.162887 0.0424,0.105089 0.02332,-0.05779 0.02332,-0.152379 0,-0.210178 z m 0.08407,-0.420351 c -0.02332,-0.0578 -0.0424,-0.01052 -0.0424,0.105086 0,0.115599 0.01909,0.162886 0.0424,0.105088 0.02332,-0.05779 0.02332,-0.152376 0,-0.210174 z m 0.179773,-0.693586 c 0,-0.13314 -0.01402,-0.124389 -0.06731,0.04204 -0.03702,0.1156 -0.06731,0.285842 -0.06731,0.378319 0,0.13314 0.01402,0.124389 0.06731,-0.04204 0.03702,-0.115596 0.06731,-0.285842 0.06731,-0.378319 z m 9.7217759,-0.189158 c -1.309307,-2.010025 -6.126648,-9.176078 -6.151717,-9.151008 -0.04236,0.04236 6.180403,9.382201 6.250989,9.382201 0.02823,0 -0.01645,-0.104037 -0.09927,-0.231193 z M 6.8071281,28.173128 c -0.02332,-0.0578 -0.0424,-0.01052 -0.0424,0.105089 0,0.115597 0.01908,0.162887 0.0424,0.105089 0.02332,-0.05779 0.02332,-0.152379 0,-0.210178 z m 0.08407,-0.420354 c -0.02332,-0.0578 -0.0424,-0.01052 -0.0424,0.105089 0,0.115596 0.01908,0.162886 0.0424,0.105088 0.02332,-0.0578 0.02332,-0.152379 0,-0.210177 z m 10.8206009,0.08407 c -0.268892,-0.449683 -6.262476,-9.394906 -6.294884,-9.394906 -0.02295,0 1.3832,2.137499 3.124791,4.749996 1.741591,2.612497 3.181469,4.749995 3.19973,4.749995 0.01826,0 0.005,-0.04729 -0.02964,-0.105085 z M 6.9752731,27.332422 c -0.02332,-0.0578 -0.0424,-0.01052 -0.0424,0.105086 0,0.115599 0.01908,0.162887 0.0424,0.105088 0.02332,-0.05779 0.02332,-0.152376 0,-0.210174 z m 0.08407,-0.420354 c -0.02332,-0.0578 -0.0424,-0.01052 -0.0424,0.105088 0,0.115597 0.01908,0.162887 0.0424,0.105089 0.02332,-0.05779 0.02332,-0.152379 0,-0.210177 z m 0.08407,-0.420355 c -0.02332,-0.05779 -0.0424,-0.01052 -0.0424,0.105088 0,0.115597 0.01908,0.162887 0.0424,0.105089 0.02332,-0.05779 0.02332,-0.152379 0,-0.210177 z m 0.179772,-0.693583 c 0,-0.13314 -0.01402,-0.124389 -0.06731,0.04204 -0.03702,0.115596 -0.06731,0.285839 -0.06731,0.37832 0,0.133139 0.01402,0.124388 0.06731,-0.04204 0.03702,-0.115597 0.06731,-0.28584 0.06731,-0.378317 z m 0.07244,-0.483407 c -0.02332,-0.05779 -0.0424,-0.01051 -0.0424,0.105089 0,0.115597 0.01908,0.162887 0.0424,0.105089 0.02332,-0.0578 0.02332,-0.152379 0,-0.210178 z m 0.08407,-0.420353 c -0.02332,-0.0578 -0.0424,-0.01051 -0.0424,0.105088 0,0.115597 0.01909,0.162888 0.0424,0.105088 0.02332,-0.05779 0.02332,-0.152377 0,-0.210176 z m 0.08407,-0.420354 c -0.02332,-0.05779 -0.0424,-0.01051 -0.0424,0.105088 0,0.115598 0.01908,0.162887 0.0424,0.105089 0.02332,-0.05779 0.02332,-0.152379 0,-0.210177 z m 0.08407,-0.420353 c -0.02332,-0.0578 -0.0424,-0.01051 -0.0424,0.105088 0,0.115597 0.01908,0.162887 0.0424,0.105088 0.02332,-0.0578 0.02332,-0.152378 0,-0.210176 z m 0.08407,-0.420354 c -0.02332,-0.0578 -0.0424,-0.01051 -0.0424,0.105088 0,0.115597 0.01908,0.162887 0.0424,0.105089 0.02332,-0.0578 0.02332,-0.152379 0,-0.210177 z m 0.31463,-1.366149 c 0.03263,-0.259794 0.01537,-0.231111 -0.07586,0.126106 -0.06495,0.254313 -0.137101,0.613716 -0.16033,0.798671 -0.03262,0.259795 -0.01537,0.231111 0.07586,-0.126106 0.06495,-0.254314 0.137101,-0.613716 0.16033,-0.798671 z m 0.105724,-0.651549 c -0.02332,-0.05779 -0.0424,-0.01051 -0.0424,0.105089 0,0.115597 0.01908,0.162886 0.0424,0.105088 0.02332,-0.05779 0.02332,-0.152378 0,-0.210177 z m 0.08407,-0.420353 c -0.02332,-0.0578 -0.0424,-0.01051 -0.0424,0.105088 0,0.115597 0.01908,0.162887 0.0424,0.105088 0.02332,-0.05779 0.02332,-0.152377 0,-0.210176 z m 0.08407,-0.420354 c -0.02332,-0.05779 -0.0424,-0.01051 -0.0424,0.105088 0,0.115597 0.01908,0.162887 0.0424,0.105089 0.02332,-0.05779 0.02332,-0.152379 0,-0.210177 z m 0.08407,-0.420354 c -0.02332,-0.0578 -0.0424,-0.01051 -0.0424,0.105088 0,0.115598 0.01908,0.162888 0.0424,0.105089 0.02332,-0.05779 0.02332,-0.152378 0,-0.210177 z m 0.182244,-0.651547 c 0.0016,-0.07726 -0.02552,-0.06098 -0.06978,0.04204 -0.03974,0.09248 -0.07114,0.243805 -0.06978,0.336283 0.002,0.135169 0.01567,0.126924 0.06978,-0.04204 0.03702,-0.115597 0.06842,-0.266925 0.06978,-0.336283 z m 0.219354,-0.24394 c 0.02577,-0.04169 0.283363,-0.103118 0.572439,-0.136508 0.592681,-0.06846 0.8246599,-0.141036 0.9959529,-0.311593 0.06498,-0.06469 0.296481,-0.221992 0.514461,-0.349549 0.217979,-0.127557 0.480154,-0.37099 0.58261,-0.540961 0.102456,-0.169973 0.287921,-0.441453 0.412144,-0.603289 0.232083,-0.302353 0.500511,-1.193497 0.500511,-1.66163 0,-0.425469 -0.171793,-1.121386 -0.393963,-1.595914 -0.640288,-1.367565 -2.3422739,-2.294228 -3.7596009,-2.04695 -0.76341,0.13319 -1.639806,0.598795 -2.122993,1.127888 -1.334653,1.461455 -1.342775,3.493955 -0.01955,4.893067 0.572418,0.605248 0.855559,0.77192 1.784541,1.050482 0.927491,0.278115 0.875696,0.268406 0.933452,0.174957 z M 92.588957,12.952977 c -7.4e-4,-0.326238 0.0553,-0.597698 0.17034,-0.823178 0.22508,-0.441201 0.75608,-0.965852 1.1398,-1.12618 0.39718,-0.165955 0.48114,-0.158465 0.15981,0.01426 -0.78778,0.423447 -1.29995,1.127246 -1.30359,1.791325 -0.001,0.208075 -0.0388,0.435066 -0.0836,0.504425 -0.0578,0.08946 -0.0819,-0.01536 -0.0828,-0.36065 z m -20.363301,0.192508 c -0.031,-0.115597 -0.0778,-0.396273 -0.10413,-0.623723 -0.0814,-0.704031 -0.52774,-1.296767 -1.266693,-1.682071 -0.174714,-0.0911 -0.204887,-0.13138 -0.09867,-0.131739 0.218583,-7.41e-4 0.829003,0.439749 1.097853,0.792239 0.3584,0.469888 0.4835,0.849602 0.45428,1.378916 -0.0192,0.347439 -0.0416,0.419611 -0.0826,0.266378 z"
       id="path826"
       inkscape:connector-curvature="0"
       sodipodi:nodetypes="cscscccccsscccssccssssscssscccccscccscccsccccsscscssscccsscccscsscccssccscsscscscsssscccsscccccscccsscccccssccscscsccsccscsccccccccsccsccccccccsscccccscscccscsscsssccsscccsscsccccccscscccccccsccccccccsscccccscccsccssccccsccscsccssccccscssccsccccccccccccscsscsccccscssccsscsccccsccscscccccccccccccscccccccscccsssssccccccccssssssccscssscccssssssccccscccssccscscsscscscccccsscccccsccccccscscsscscsscscsscscsccscscccsssscsscccssscccscscccsscccsssscsccssscsccccscccssssccsssssccsccccscscsscccsccssscccscccccssccccccscsscssccccssccscccccccccccscccscccsccccssscccsccscccccccccsccccccscccccsccccccccscccsccccscscccccsccscccccssccccccscccccsccsssccsssccscscsscccscccccscsscsssscsscsssccsscscscscscsscscccssscccssscsccsscsscssssccssccscsccccscccsscssscssscssscssscsscscscsscsscssscscssscsscssscssscsscscssscssscssscscsccsscsccsccsscscsccsscssscscccsccsccccssssssccccccccccccccc" />
    <path
       inkscape:connector-curvature="0"
       id="path838"
       d="m 105.22199,44.72223 0.11119,-0.02676 0.0672,-0.05519 0.11396,-0.01563 0.11752,-4.05e-4 0.10881,-0.02077 0.11512,-0.0033 0.11206,0.01181 0.11162,0.01299 0.10662,0.02005 0.11279,7.98e-4 0.11448,0.0066 0.10573,-0.02481 0.10942,-0.0068 0.10965,-0.0055 0.10438,-0.02042 0.11027,-0.0065 0.10749,-0.02156 0.0723,-0.0484 0.0955,-0.03285 0.11178,-0.0088 0.0918,-0.03255 0.0892,-0.0346 0.10312,-0.02427 0.0735,-0.04629 0.0909,-0.04254 0.0354,-0.06236 0.0855,-0.04594 0.11756,-0.01326 0.10495,-0.0242 0.11381,-0.0031 0.0919,-0.03714 0.11102,-0.0151 0.0609,-0.05712 0.10682,-0.03125 0.0276,-0.06202 0.0476,-0.0583 0.0646,-0.0521 0.0833,-0.04351 0.097,-0.03342 0.0969,-0.03346 0.12087,-0.0092 0.0949,-0.04183 0.11812,-0.0028 0.1167,0.01029 0.11955,-0.0083 0.10842,-0.02868 0.0561,-0.05954 0.10206,-0.03725 0.0971,-0.03016 0.11018,-0.01024 0.1123,-0.01092 0.0867,-0.04036 0.11213,-0.01212 0.0851,-0.04157 0.10549,-0.01751 0.10404,-0.0199 0.11038,-0.0062 0.11044,0.0059 0.10966,-0.01187 0.111,0.0073 0.11066,-0.0055 0.11077,-0.0048 0.0978,-0.03187 0.11357,-0.0054 0.0951,-0.03414 0.0982,-0.03147 0.1063,-0.02269 0.099,-0.03099 0.042,-0.06118 0.0966,-0.03864 0.0778,-0.04797 0.10698,-0.02643 0.0845,-0.04477 0.0948,-0.03816 0.10421,-0.03076 0.11507,-0.01547 0.11644,0.0025 0.11638,0.0033 0.11597,-0.007 0.1141,-0.01327 0.10709,0.02434 0.10119,0.03094 0.11589,-0.01564 0.11579,0.01588 0.11208,-0.02071 0.11475,0.01579 0.11195,-0.01101 0.10822,-0.01911 0.11329,-0.0091 0.11096,-0.01538 0.11431,-0.0034 0.11322,-0.0092 0.10726,0.02153 0.10612,0.02315 0.11539,0.0071 0.10363,0.02854 0.1086,-0.0222 0.0974,-0.03429 0.10646,-0.03007 0.0614,-0.05613 0.1158,-0.01636 0.0835,-0.04666 0.0838,-0.04318 0.0761,-0.04725 0.11122,0.02705 0.12177,0.0012 0.12164,5.6e-4 0.11299,-0.02454 0.10346,-0.03183 0.11671,-0.01212 0.0868,-0.04675 0.11912,-0.01441 0.0583,0.0603 0.10854,0.03388 0.10332,0.03836 0.12494,0.0025 0.11356,-0.02564 0.12182,0.009 0.1162,0.01337 0.11402,0.01812 0.10305,-0.03218 0.11078,-0.02335 0.1151,-0.01902 0.12009,0.0036 0.12182,-0.0025 0.12167,-0.0041 0.12358,0.0163 0.0873,0.05038 0.11261,0.01141 0.11385,-0.0068 0.10671,0.02161 0.0971,0.03241 0.10888,0.01452 0.1108,0.0093 0.11191,-0.0032 0.11122,-0.0074 0.0425,0.06059 0.0821,0.04694 0.11512,0.0163 0.0951,0.03892 0.11491,0.0041 0.10237,0.02873 0.0944,0.03437 0.10676,0.02108 0.10032,0.02529 0.0908,0.03433 0.11022,0.01143 0.0942,0.03319 0.0969,0.03355 0.11478,5.4e-5 0.0859,0.04125 0.11284,0.01067 0.11189,0.0014 0.11,-0.01125 0.10956,-0.01177 0.1116,-0.0022 0.11419,-0.0045 0.11387,0.0065 0.11722,0.01085 0.0876,0.04378 0.11505,-0.0063 0.10687,0.02404 0.1142,0.0039 0.108,-0.0206 0.10946,-0.01093 0.11098,-0.0044 0.10509,-0.02193 0.11242,-0.0029 0.11636,-0.003 0.10482,0.02769 0.10958,0.02312 0.1153,-0.01235 0.11215,0.01528 0.10716,0.02363 0.0727,0.04975 0.0972,0.03519 0.10892,0.0086 0.0997,0.02543 0.1127,0.0047 0.0919,0.03586 0.10773,0.01778 0.11252,0.0017 0.1031,0.02567 0.0803,0.0436 0.11325,-0.0083 0.10645,0.02264 0.11299,0.0085 0.10698,-0.02155 0.11229,0.0025 0.10127,0.02656 0.0956,0.03239 0.11159,0.0081 0.11215,0.02187 0.1171,0.01188 0.11152,-0.02234 0.11437,-0.01755 0.11689,-0.01349 0.11728,0.01243 0.11921,-0.01349 0.0883,-0.0457 0.10992,0.02302 0.0838,0.04508 0.10751,0.02319 0.0997,0.03195 0.11822,-0.0015 0.11714,-0.0088 0.11543,0.01574 0.10471,0.0308 0.11127,-0.0112 0.11213,0.0083 0.0999,-0.02994 0.11347,-0.0062 0.10558,-0.02137 0.095,-0.03294 0.11089,-0.0086 0.11055,-0.0098 0.0858,-0.04366 0.11462,-0.01389 0.0777,-0.04583 0.0984,-0.03183 0.11437,0.01373 0.11544,-0.01075 0.10373,-0.02751 0.1108,-0.01749 0.11153,-0.01104 0.11301,-0.0048 0.11351,-0.0059 0.11283,0.0091 0.11433,-0.0079 0.11144,-0.01599 0.0924,-0.03747 0.10033,-0.03088 0.11931,-0.001 0.0994,-0.03599 0.11378,-0.007 0.11372,-0.0073 0.089,-0.04329 0.11626,-0.01458 0.091,-0.03969 0.0691,-0.05113 0.11652,-0.0046 0.10528,0.0276 0.11533,0.0096 0.10922,-0.02237 0.0982,0.03284 0.11509,0.0033 0.1074,0.01672 0.10671,0.01797 0.099,0.03313 0.10139,0.03088 0.11468,0.0143 0.1171,-0.0062 0.11456,7.5e-5 0.11381,0.0071 0.10322,-0.03139 0.1182,6.9e-5 0.0911,0.04027 0.0933,0.03874 0.0874,0.04289 0.0755,0.04912 0.0953,0.04184 0.12075,0.01091 0.11672,0.01141 0.11837,0.0038 0.0887,0.0408 0.10649,0.02518 0.0909,0.03827 0.092,0.03746 0.11598,0.0208 0.0801,0.05024 0.11403,0.0192 0.1193,-0.002 0.11496,0.02009 0.11943,-0.0096 0.11666,0.0085 0.11757,0.003 0.076,0.05246 0.11549,0.02254 0.11787,0.01556 0.092,0.04305 0.11482,0.0056 0.11097,0.01701 0.11394,0.01516 0.11551,-0.01107 0.11288,-0.02643 0.12102,0.01156 0.11057,0.02204 0.11011,0.02272 0.11427,0.0088 0.11456,-0.0076 0.11445,9.43e-4 0.11438,-0.0023 0.11469,-0.0034 0.11487,-9.6e-5 0.11523,0.0029 0.11213,0.01473 0.11338,0.0089 0.11408,0.0057 0.11647,-0.0127 0.11198,0.02158 0.1093,-0.02764 0.11989,-0.0066 0.1075,0.03086 0.12124,0.0043 0.11762,-0.01714 0.12062,-0.009 0.11976,-0.01544 0.10487,-0.03509 0.0848,-0.05077 0.05,-0.06303 0.12047,-0.022 0.0938,-0.04666 0.12693,0.01178 0.10115,0.04341 0.1265,0.0015 0.12047,-0.02108 0.10889,-0.02909 0.11923,-0.01209 0.11367,-0.02505 0.12259,0.0011 0.10667,-0.02905 0.0982,-0.03688 0.11625,-0.02199 0.12098,0.01223 0.1163,0.01313 0.11857,-0.0037 0.11308,0.01963 0.10064,0.03427 0.10978,0.02444 0.11799,0.0065 0.12147,0.0058 0.1092,-0.02957 0.091,-0.03956 0.0985,-0.03387 0.12097,-3.18e-4 0.10222,-0.03525 0.1135,0.01304 0.11204,-0.01635 0.1082,0.02176 0.11509,-0.0041 0.11516,-0.002 0.11227,-0.0141 0.11238,0.01301 0.10867,0.0203 0.11828,-0.0012 0.1142,0.01683 0.12047,0.0077 0.11128,-0.02632 0.10292,-0.03274 0.0796,-0.04835 0.11561,-0.01445 0.1058,-0.02921 0.11181,-0.02351 0.0701,-0.05294 0.10541,-0.02838 0.11753,-0.0019 0.0656,-0.05132 0.0787,-0.04551 0.0916,-0.03844 0.10771,-0.0229 0.0803,-0.04546 0.0887,-0.04053 0.11729,-0.0049 0.10614,-0.02761 0.0992,-0.02992 0.10819,-0.01851 0.11527,0.0011 0.10629,-0.02431 0.12143,-0.0088 0.12065,-0.01151 0.12345,-0.01801 0.0851,-0.05193 0.0578,-0.06057 0.10764,-0.03495 0.0752,-0.0517 0.056,-0.05847 0.11829,0.01326 0.12006,0.007 0.0963,-0.04365 0.12387,-0.01011 0.12154,10e-4 0.10856,-0.02978 0.11551,0.01339 0.11685,0.0093 0.0959,-0.03486 0.0677,-0.05084 0.10296,-0.02889 0.0738,-0.04861 0.0949,-0.03802 0.11665,-0.0088 0.0762,-0.0489 0.10971,-0.02327 0.0339,-0.06031 0.0736,-0.04871 0.0748,-0.04657 0.0774,-0.04527 0.056,-0.05401 0.0592,-0.053 0.0598,-0.05571 0.10508,-0.02981 0.0972,-0.03595 0.0591,-0.05529 0.0987,-0.03191 0.0905,-0.03843 0.11944,0.0022 0.10992,-0.02556 0.0903,-0.04045 0.0985,-0.03425 0.11558,0.007 0.1163,-3.17e-4 0.0979,-0.03557 0.11372,-0.0165 0.11033,-0.01445 0.11104,-0.01275 0.093,-0.03769 0.11281,-0.01443 0.0465,-0.06005 0.094,-0.04032 0.0721,-0.05159 0.10685,-0.02858 0.10614,-0.03033 0.0657,-0.05463 0.11364,-0.01804 0.0918,-0.04071 0.11882,0.002 0.10374,-0.03163 0.11601,-0.0028 0.10821,-0.02294 0.11745,0.0082 0.11681,-0.01056 0.10604,-0.02714 0.10584,-0.02737 0.11828,-0.0069 0.095,-0.03902 0.1145,-0.0041 0.11344,-0.0094 0.11365,-0.0096 0.1106,-0.01716 0.10298,-0.02773 0.0985,-0.03217 0.1163,0.01777 0.0923,0.04243 0.12001,-0.003 0.11376,0.02106 0.11671,0.0173 0.12019,-0.0074 0.10482,-0.03278 0.11946,-0.01 0.0225,-0.0662 -0.0276,-0.06562 0.0277,-0.0671 0.0906,-0.04792 0.0646,-0.05825 -0.001,-0.06805 0.0712,-0.05333 0.092,-0.04282 0.0911,-0.04639 0.12185,-0.01453 0.0532,-0.05911 0.0728,-0.05254 0.0745,-0.05016 0.0889,-0.0427 0.10609,-0.02825 0.10832,-0.02562 0.12183,0.0022 0.10447,-0.03421 0.10917,-0.02711 0.0764,-0.0504 0.0668,-0.05352 0.10729,-0.02774 0.10069,-0.03234 0.07,-0.051 0.0989,-0.03309 0.10832,-0.02273 0.0993,-0.03331 0.11192,-0.01788 0.11304,-0.01535 0.11606,-0.0054 0.11703,-0.0151 0.11512,0.01898 0.0716,-0.04751 0.083,-0.04167 0.0586,-0.0551 0.10244,-0.03065 0.0716,-0.04916 0.0284,-0.06079 0.0546,-0.05368 0.0573,-0.05282 0.0677,-0.05063 0.0857,-0.04174 0.0899,-0.04086 0.11299,-0.01661 0.0937,-0.03546 0.10458,-0.0248 0.1113,-0.01241 0.10901,-0.01743 0.11373,-0.01219 0.0999,-0.03208 0.0969,-0.03739 0.11842,-0.0044 0.0197,-0.06547 0.0778,-0.05102 0.0882,-0.04241 0.0958,-0.03724 0.11542,0.0091 0.11629,0.0049 0.10024,-0.03314 0.11088,-0.02077 0.10454,-0.02435 0.0849,-0.04122 0.0928,-0.03437 0.0955,-0.03213 0.11706,-0.0019 0.10844,0.02411 0.10275,0.02798 0.0945,0.03556 0.11182,-0.0091 0.11299,-0.0022 0.11292,0.0033 0.11285,-0.0041 0.11332,-0.0104 0.11181,0.01446 0.11319,0.01172 0.0943,0.03609 0.11203,-0.01532 0.11383,-0.01066 0.12011,0.0049 0.0956,0.0399 0.0956,-0.04317 0.1219,-0.01285 0.11649,0.02234 0.12263,-0.0079 0.11563,0.01501 0.11359,0.01908 0.11115,-0.02796 0.12224,0.0037 0.0898,0.04337 0.11841,0.01059 0.10183,0.02943 0.10251,0.02874 0.0759,0.0494 0.10146,0.03311 0.10902,0.02268 0.10582,0.0268 0.0698,0.04879 0.0831,0.04214 0.0787,0.04434 0.0764,0.04553 0.0555,0.05511 0.0894,0.03969 0.0577,0.05475 0.0942,0.03672 0.0965,0.03343 0.0949,0.03472 0.0777,0.04575 0.071,0.04889 0.0811,0.04442 0.0661,0.0513 0.10466,0.02657 0.0896,0.03967 0.10853,0.02095 0.11302,0.01198 0.11476,0.0021 0.1147,0.0029 0.11262,0.02143 0.0864,0.0448 0.1185,-0.0036 0.11272,0.02026 0.11227,0.01715 0.10389,0.02886 0.0678,0.05341 0.10439,0.03135 0.11164,0.02025 0.11764,7.98e-4 0.0821,0.0482 0.11608,0.01803 0.0468,0.05853 0.0502,0.05767 0.086,0.04339 0.0905,0.04057 0.036,0.06248 0.0785,0.0496 0.095,0.038 0.10033,0.03365 0.0613,0.05513 0.0391,0.06086 0.0583,0.05819 -0.002,0.06628 0.1008,0.03684 0.0542,0.05918 0.0708,0.05276 0.10403,0.03253 0.11912,0.01474 0.12121,-0.0082 0.12031,0.003 0.12031,-0.003 0.0968,0.04212 0.12103,0.01436 0.11446,0.0208 0.11636,0.01738 0.11146,0.02995 0.0876,0.04803 0.12065,0.01599 0.10537,0.0358 0.10024,0.04119 0.0598,0.06013 0.0761,0.05386 0.0357,0.06514 0.11748,0.01358 0.118,-0.01217 0.1145,0.01505 0.11574,0.01193 0.0929,0.03926 0.0832,0.04527 0.10351,0.03099 0.0877,0.04307 0.0826,0.04625 0.1066,0.02816 0.0948,0.03951 0.0569,0.05714 0.12034,-0.007 0.12047,0.0062 0.0984,0.03811 0.10749,0.02994 0.10582,0.02944 0.0907,0.04181 0.1049,0.03353 0.12151,0.0029 0.11587,-0.01034 0.1173,0.0029 0.11826,0.0016 0.11319,-0.01874 0.11498,1.55e-4 0.11476,-0.004 0.11289,0.01383 0.10394,0.02771 0.11227,0.01091 0.11404,-4.94e-4 0.11444,4.91e-4 0.1111,-0.01497 0.10641,0.02999 0.0934,0.04087 0.11732,0.01651 0.12047,-0.007 0.11811,-0.01725 0.1186,0.01622 0.11129,0.02256 0.10317,0.03203 0.11876,-0.01072 0.10927,-0.02751 0.11943,0.0021 0.11821,0.0095 0.10629,0.0289 0.11149,0.02233 0.11623,0.01812 0.12014,-0.0073 0.12312,0.01141 0.11593,-0.02531 0.1222,0.0049 0.1164,-0.02084 0.12019,0.01336 0.10108,0.03786 0.10365,0.03514 0.11951,0.01358 0.11725,-0.02387 0.12302,0.01259 0.11462,0.02587 0.12364,-0.0055 0.0948,-0.04163 0.11498,-0.02185 0.0995,-0.04108 0.12431,-0.0061 0.0696,0.05286 0.074,0.05106 0.12051,0.01639 0.0861,0.0488 0.0664,0.05647 0.1103,0.02974 0.10173,0.03481 0.11671,0.01551 0.10675,0.0292 0.0881,0.04392 0.0872,0.04467 0.0582,0.05701 0.11345,0.02337 0.0757,0.05165 0.10166,0.03173 0.0941,0.03803 0.0821,0.05407 0.11417,0.03245 0.12038,0.02412 0.12826,-3.66e-4 0.10845,-0.03691 0.12453,-0.01583 0.12856,-0.0083 0.12224,0.02323 0.11134,0.02821 0.12249,-0.0046 0.11471,0.0177 0.11821,0.0085 0.11283,0.02298 0.0938,0.04119 0.0894,0.04492 0.11539,0.02095 0.08,0.04931 0.10105,0.03606 0.0573,0.0574 0.0454,0.06047 0.0386,0.06305 0.0759,0.05204 0.003,0.06546 0.009,0.06529 0.0677,0.05402 0.066,0.05465 0.0724,0.05217 0.0716,0.05251 0.10287,0.03472 0.1147,0.02102 0.11766,0.01479 0.11055,0.02645 0.0886,0.05016 0.12333,0.01817 0.0584,0.05908 0.054,0.0603 0.10355,0.03321 0.10847,0.02814 0.12069,0.0024 0.11681,0.01672 0.0834,0.04973 0.11762,0.02072 0.0465,0.06064 0.0751,0.05145 0.0777,0.05042 0.018,0.06509 0.0726,0.05144 0.0261,0.0633 0.073,0.04817 0.0441,0.05766 0.0847,0.04242 0.0538,0.0554 0.0932,0.03623 0.0926,0.03671 0.0804,0.04513 0.057,0.05472 0.0494,0.0569 0.0813,0.04472 0.0908,0.0375 0.0855,0.04104 0.0657,0.05156 0.0737,0.04824 0.0889,0.04154 0.11057,0.02104 0.092,0.04199 0.0875,0.04474 0.10939,0.03262 0.12453,-0.0035 0.0896,0.04437 0.11484,0.02097 0.11746,0.0087 0.11736,0.009 0.0846,0.04543 0.0523,0.05812 0.0819,0.04863 0.0274,0.06427 0.11342,0.02448 0.0757,0.05212 0.0756,0.04924 0.0715,0.05104 0.12801,-4.53e-4 0.12785,0.0034 0.11589,-0.03016 0.1049,-0.04036 0.12328,-0.0123 0.11134,-0.03137 0.10004,-0.0402 0.10978,-0.03176 0.11177,0.03306 0.12613,0.0088 0.12989,0.0062 0.1027,0.04376 0.12352,-0.01199 0.12538,-0.0026 0.12479,0.01431 0.12553,-0.01225 0.12597,-0.0036 0.12596,-0.0036 0.1112,-0.03331 0.0953,-0.04567 0.11108,-0.02759 0.10571,-0.03328 0.0943,-0.0421 0.0934,-0.04274 0.0291,-0.0681 0.0803,-0.05452 0.10872,-0.03398 0.10072,-0.04064 0.0811,-0.05053 0.11073,-0.02939 0.0857,-0.04639 0.0918,-0.04278 0.11884,-0.01062 0.12042,6.72e-4 0.12032,0.0066 0.11955,-0.0099 0.12062,-0.0085 0.11947,-0.01241 0.11851,0.01537 0.12115,0.007 0.11376,0.02684 0.092,0.04527 0.11553,0.02289 0.12156,0.01 0.0872,0.04812 0.0727,0.05482 0.12081,0.01813 0.10456,0.03762 0.12074,0.0063 0.1159,-0.01949 0.11671,0.01357 0.11921,0.003 0.11223,0.02352 0.0968,0.03883 0.11626,0.01431 0.11535,0.01635 0.11682,-0.01195 0.1149,-0.01656 0.11925,0.0045 0.11443,0.01883 0.11825,-0.0088 0.10921,-0.02623 0.11709,0.01031 0.11861,-7.26e-4 0.12214,-0.0065 0.11222,0.02707 0.11141,-0.02604 0.12122,2.9e-4 0.0885,0.04568 0.11981,0.01231 0.12075,0.0059 0.0985,0.03853 0.0735,0.05068 0.11048,0.02341 0.10628,0.02741 0.0722,0.05056 0.11712,0.01188 0.11528,0.01637 0.0676,0.05492 0.10108,0.03663 0.11908,-0.0028 0.11244,0.02157 0.11678,-0.0049 0.11573,-0.0098 0.11117,0.0183 0.10896,0.0219 0.12012,8.1e-5 0.10415,0.03261 0.0991,0.03797 0.1028,0.03496 0.0419,0.06279 0.0752,0.05279 0.0922,0.04306 0.10303,0.03504 0.12165,0.0032 0.11772,0.01701 0.0847,-0.04908 0.10829,-0.03253 0.0926,-0.04682 0.12286,-0.01598 0.11726,-0.02258 0.12287,-0.0105 0.1237,0.0048 0.12214,0.01168 0.11483,0.0168 0.11891,-7.98e-4 0.11507,0.01431 0.1175,0.0061 0.12057,1.57e-4 0.11856,-0.0119 0.12491,0.0014 0.10444,0.03736 0.1216,0.02066 0.12341,-0.01718 0.0928,0.04646 0.12143,0.01839 0.0739,0.05177 0.098,0.03811 0.11399,0.02626 0.0721,0.0548 0.12034,0.01714 0.0835,0.05025 0.11113,0.02872 0.12282,-0.0038 0.11005,0.02823 0.12152,0.0027 0.12231,0.01098 0.11459,-0.02574 0.11038,-0.01993 0.11568,0.0065 0.0785,-0.0467 0.1064,-0.02545 0.10955,-0.0105 0.10889,-0.01236 0.10956,-0.01674 0.087,-0.03993 0.11363,0.0014 0.11361,-0.0017 0.11321,-0.0074 0.10943,-0.01744 0.081,-0.04588 0.0778,-0.04749 0.11409,-0.01465 0.1079,-0.02495 0.1128,-0.01418 0.10374,-0.028 0.11631,-0.0081 0.1131,0.01686 0.10977,-0.01368 0.10843,-0.01655 0.11055,-0.0116 0.11006,-0.01289 0.10489,-0.02678 0.0904,-0.03948 0.10222,-0.03194 0.11744,-0.0053 0.0719,-0.05079 0.0543,-0.0569 0.095,-0.03795 0.10648,-0.02743 0.10625,-0.03103 0.0589,-0.05731 0.10796,-0.02335 0.099,-0.0331 0.11465,-0.0023 0.11252,-0.01217 0.10842,-0.02395 0.1169,0.0025 0.0757,-0.0488 0.11242,-0.01823 0.11414,-0.0086 0.0963,-0.03448 0.11479,-0.0067 0.11516,0.0044 0.10165,-0.02931 0.10067,-0.03029 0.11469,-0.0059 0.10696,-0.02331 0.10924,-0.01863 0.10137,-0.02897 0.10715,-0.02186 0.10448,-0.02542 0.11606,3.1e-4 0.10954,-0.0209 0.11427,0.0065 0.11179,0.01439 0.11747,0.0049 0.1009,0.03314 0.11662,-0.01358 0.1131,-0.02061 0.11919,0.0096 0.10841,0.02862 0.11216,0.0018 0.10916,0.01413 0.11217,0.0015 0.10934,0.01368 0.11579,-0.0067 0.1148,0.01067 0.1056,-0.02558 0.0991,-0.03237 0.10585,-0.0187 0.10968,-0.01024 0.11056,0.0084 0.11131,-0.0045 0.11034,-0.0059 0.10989,0.008 0.11267,0.01151 0.10658,-0.02299 0.1019,0.0302 0.11526,0.0071 0.11415,-0.0034 0.1111,-0.0147 0.11152,-0.01187 0.0994,-0.02999 0.11286,0.0061 0.1114,-0.01159 0.11458,0.0073 0.10336,0.02791 0.1116,-0.01534 0.11481,0.0044 0.11052,-0.01117 0.11176,-0.0065 0.1,-0.0289 0.10989,-0.01475 0.11688,0.0104 0.11713,-0.0095 0.10926,-0.02285 0.1105,-0.02098 0.11674,0.0028 0.10901,0.02293 0.1161,-0.0012 0.11338,0.01366 0.11137,0.01841 0.10459,0.02782 0.11629,0.0059 0.11567,-0.0088 0.11734,0.0109 0.10391,0.03163 0.11135,-0.02561 0.12041,0.0058 0.11509,-0.02079 0.10277,-0.03506 0.11978,0.0067 0.11913,0.0096 0.11834,-0.01199 0.0886,-0.04437 0.0871,-0.04366 0.11245,-0.02015 0.0727,-0.0503 0.099,-0.03444 0.0934,-0.03755 0.0841,-0.04356 0.11252,-0.02651 0.12181,0.0075 0.0904,-0.04277 0.10888,-0.02708"
       style="fill:none;stroke:#000000;stroke-width:0.58999997;stroke-linecap:butt;stroke-linejoin:miter;stroke-miterlimit:4;stroke-dasharray:none;stroke-opacity:1" />
    <text
       xml:space="preserve"
       style="font-style:normal;font-variant:normal;font-weight:normal;font-stretch:normal;font-size:6.3499999px;line-height:1.25;font-family:'Comic Sans';-inkscape-font-specification:'Comic Sans';text-align:center;letter-spacing:0px;word-spacing:0px;text-anchor:middle;fill:#000000;fill-opacity:1;stroke:none;stroke-width:0.26458332"
       x="157.01651"
       y="18.242558"
       id="text830"><tspan
         sodipodi:role="line"
         x="157.01651"
         y="18.242558"
         style="font-style:normal;font-variant:normal;font-weight:normal;font-stretch:normal;font-size:11.28888893px;font-family:'EB Garamond';-inkscape-font-specification:'EB Garamond';text-align:center;text-anchor:middle;stroke-width:0.26458332"
         id="tspan832">Intentional Seminars on</tspan><tspan
         sodipodi:role="line"
         x="157.01651"
         y="32.353668"
         style="font-style:normal;font-variant:normal;font-weight:normal;font-stretch:normal;font-size:11.28888893px;font-family:'EB Garamond';-inkscape-font-specification:'EB Garamond';text-align:center;text-anchor:middle;stroke-width:0.26458332"
         id="tspan834">Molecular Spectroscopy</tspan></text>
  </g>
</svg>
